<svg width="34" height="34" viewBox="0 0 34 34" fill="none" xmlns="http://www.w3.org/2000/svg">
<circle cx="17" cy="17" r="16.5" fill="white" fill-opacity="0.04" stroke="#D1B06B"/>
<path d="M15.3646 11.4302L15.9055 12.3993C16.3936 13.2738 16.1976 14.4211 15.4289 15.1898C15.4289 15.1898 15.4289 15.1898 15.4289 15.1898C15.4288 15.19 14.4966 16.1224 16.1871 17.8129C17.8769 19.5028 18.8093 18.5719 18.8101 18.5711C18.8102 18.5711 18.8102 18.5711 18.8102 18.571C19.5789 17.8024 20.7262 17.6064 21.6007 18.0945L22.5698 18.6354C23.8904 19.3724 24.0464 21.2244 22.8856 22.3852C22.1881 23.0827 21.3336 23.6254 20.3891 23.6612C18.799 23.7215 16.0985 23.3191 13.3897 20.6103C10.6809 17.9014 10.2785 15.201 10.3388 13.6109C10.3746 12.6663 10.9173 11.8119 11.6148 11.1144C12.7756 9.95358 14.6276 10.1095 15.3646 11.4302Z" fill="#D1B06B"/>
<path d="M18.0496 8.56673C18.1048 8.22599 18.4269 7.99484 18.7676 8.05001C18.7887 8.05404 18.8566 8.06673 18.8921 8.07465C18.9632 8.09048 19.0624 8.11486 19.1861 8.15089C19.4334 8.22292 19.7789 8.34159 20.1936 8.53171C21.0238 8.91233 22.1287 9.57817 23.2752 10.7247C24.4217 11.8712 25.0875 12.976 25.4681 13.8062C25.6583 14.2209 25.7769 14.5664 25.849 14.8137C25.885 14.9374 25.9094 15.0366 25.9252 15.1077C25.9331 15.1433 25.9389 15.1718 25.9429 15.1929L25.9477 15.2189C26.0029 15.5597 25.7739 15.8951 25.4331 15.9502C25.0933 16.0053 24.7733 15.7752 24.7167 15.4361C24.715 15.427 24.7102 15.4025 24.7051 15.3794C24.6948 15.3333 24.677 15.2601 24.6488 15.1633C24.5924 14.9697 24.4945 14.6819 24.3319 14.3272C24.007 13.6186 23.4228 12.6401 22.3913 11.6086C21.3597 10.577 20.3812 9.99284 19.6727 9.66798C19.3179 9.50535 19.0301 9.40741 18.8365 9.35101C18.7397 9.32282 18.6181 9.2949 18.5719 9.28462C18.2328 9.2281 17.9946 8.9065 18.0496 8.56673Z" fill="#D1B06B"/>
<path fill-rule="evenodd" clip-rule="evenodd" d="M18.2381 11.4413C18.333 11.1094 18.6789 10.9172 19.0108 11.012L18.8391 11.613C19.0108 11.012 19.0108 11.012 19.0108 11.012L19.012 11.0124L19.0133 11.0127L19.016 11.0136L19.0225 11.0155L19.039 11.0206C19.0516 11.0246 19.0672 11.0299 19.086 11.0365C19.1234 11.0498 19.1728 11.0687 19.2335 11.0947C19.3549 11.1467 19.5208 11.2271 19.7246 11.3477C20.1325 11.5891 20.6893 11.99 21.3434 12.6442C21.9976 13.2983 22.3985 13.8551 22.6399 14.263C22.7605 14.4668 22.8409 14.6327 22.8929 14.7541C22.9189 14.8148 22.9378 14.8642 22.9511 14.9016C22.9577 14.9204 22.963 14.936 22.967 14.9486L22.9721 14.9651L22.974 14.9716L22.9749 14.9743L22.9752 14.9756C22.9752 14.9756 22.9756 14.9768 22.3746 15.1485L22.9756 14.9768C23.0704 15.3087 22.8782 15.6546 22.5463 15.7495C22.2172 15.8435 21.8744 15.6554 21.7761 15.3286L21.7731 15.3197C21.7686 15.3071 21.7594 15.2825 21.744 15.2465C21.7132 15.1745 21.6572 15.0568 21.5642 14.8997C21.3784 14.5857 21.0428 14.1114 20.4595 13.5281C19.8762 12.9448 19.4019 12.6092 19.0879 12.4234C18.9308 12.3304 18.8131 12.2744 18.7411 12.2436C18.7051 12.2282 18.6805 12.219 18.6679 12.2145L18.659 12.2115C18.3322 12.1132 18.1441 11.7704 18.2381 11.4413Z" fill="#D1B06B"/>
</svg>
