<svg width="257" height="448" viewBox="0 0 257 448" fill="none" xmlns="http://www.w3.org/2000/svg">
<g opacity="0.12">
<path d="M97.8166 221.618C101.199 219.223 106.739 219.636 108.787 216.446C112.177 208.341 108.957 202.948 109.304 196.428C110.077 186.039 116.886 173.175 120.99 161.085C125.315 147.896 128.557 136.16 134.127 126.825C136.971 122.301 145.525 117.785 146.004 113.224C146.483 108.663 140.678 104.331 140.28 98.4514C139.934 91.8793 142.284 90.2436 145.401 83.9295C163.835 81.4027 179.455 86.7448 196.762 93.7445C207.585 98.0328 223.779 103.139 228.62 109.21C234.101 116.026 232.089 129.943 225.51 136C220.949 135.52 213.839 133.737 210.929 137.281C211.341 144.833 216.727 147.324 218.34 153.712C215.577 160.888 213.743 168.69 211.621 176.611C221.059 180.796 231.698 183.817 234.217 194.868C275.963 206.614 312.61 215.751 348.963 230.715C388.557 247.036 423.575 274.298 467.045 285.335C472.129 299.364 463.7 311.55 451.771 312.751C447.52 308.116 442.812 304.005 438.067 302.259C419.324 295.848 399.733 291.464 380.82 285.459C324.604 267.9 273.45 242.222 225.081 218.423C217.116 224.376 204.068 216.301 197.378 216.36C197.319 222.762 194.814 226.475 193.185 231.508C188.315 235.184 181.235 236.746 176.077 240.54C184.38 246.869 182.634 264.707 173.91 269.628C146.281 262.834 117.451 257.205 96.5709 243.95C92.5924 237.525 94.8178 228.219 97.8166 221.618Z" fill="#7F7F7F"/>
<path d="M83.1772 289.051C83.7225 285.471 84.8425 281.654 87.075 279.731C89.4253 278.096 93.5293 279.098 95.7102 277.867C99.3794 275.355 97.545 270.065 102.327 269.446C121.535 269.623 151.978 268.548 176.911 270.405C186.319 271.246 202.286 270.067 209.123 273.641C213.006 275.741 214.096 281.672 217.286 283.72C224.212 284.236 227.129 288.075 229.59 292.436C238.255 293.917 245.549 296.968 244.487 307.474C228.367 310.731 209.159 310.553 191.218 310.192C150.202 309.226 106.194 309.151 66.4814 305.636C66.4964 294.216 72.4497 289.088 83.1772 289.051Z" fill="#7F7F7F"/>
<path d="M148.099 96.2481C176.473 102.401 199.298 113.851 222.123 125.301C210.261 114.389 191.65 109.938 177.961 101.119C193.448 104.501 210.246 112.716 224.613 119.915C224.046 114.441 218.859 114.89 215.617 113.534C201.604 107.198 187.576 99.1887 171.212 94.4877C164.795 92.7561 156.72 92.7117 152.078 89.5803C149.666 90.7935 148.34 93.0161 148.099 96.2481Z" fill="white"/>
<path d="M153.38 105.836C149.29 106.507 154.05 109.925 153.151 112.644C167.702 121.11 189.172 122.709 203.554 131.581C207.407 130.335 211.548 128.973 217.206 129.673C198.485 119.225 175.873 112.387 153.38 105.836Z" fill="white"/>
<path d="M145.73 126.435C168.512 132.868 190.092 140.464 209.27 150.389C201.018 130.275 170.118 131.873 150.483 122.471C147.425 122.383 148.265 126.067 145.73 126.435Z" fill="white"/>
<path d="M141.061 134.729C136.479 138.288 136.132 144.808 134.504 149.84C129.449 165.342 122.265 181.382 116.4 196.544C133.589 203.257 151.183 210.139 168.085 216.969C177.774 197.216 181.76 171.746 189.88 150.623C178.283 143.63 162.509 140.366 147.766 136.343C143.419 153.569 138.666 170.625 133.56 186.819C132.131 168.606 142.476 151.27 144.067 135.51C143.37 134.901 142.368 134.641 141.061 134.729Z" fill="white"/>
<path d="M193.636 150.756C193.061 150.991 192.199 151.345 192.147 152.038C187.446 168.401 182.591 186.843 177.028 203.56C175.399 208.592 172.621 214.096 173.527 218.76C177.263 217.228 175.937 210.722 179.149 208.733C182.067 212.571 176.401 217.581 178.272 220.506C184.034 219.821 186.038 211.614 187.784 206.869C192.006 195.066 195.013 182.754 198.542 170.899C200.34 165.462 204.724 158.964 200.591 154.617C193.223 169.389 189.229 187.477 181.743 201.962C181.242 184.375 194.984 166.317 193.636 150.756Z" fill="white"/>
<path d="M205.989 158.778C199.888 173.366 195.725 191.859 190.044 208.289C188.128 213.439 184.304 218.029 185.616 222.862C189.388 218.965 190.088 213.306 191.429 208.392C196.314 193.296 202.688 176.917 205.989 158.778Z" fill="white"/>
<path d="M208.953 186.442C203.811 191.908 202.683 201.435 199.868 209.304C205.011 203.837 206.662 194.767 208.953 186.442Z" fill="white"/>
<path d="M204.647 210.364C206.334 212.021 209.391 212.11 212.28 212.604C215.802 206.459 216.995 197.912 219.758 190.736C217.754 190.215 216.19 189.402 215.065 188.297C210.446 194.221 209.672 204.609 204.647 210.364Z" fill="white"/>
<path d="M232.663 200.875C231.801 201.229 231.986 202.496 231.006 202.562C251.193 215.766 280.988 219.657 303.578 230.532C295.112 231.991 286.927 225.949 278.314 223.775C260.852 218.853 243.273 213.644 229.495 207.882C227.122 213.555 234.468 215.913 237.71 217.269C267.372 232.292 300.638 243.823 333.004 258.073C351.07 266.105 369.253 274.423 388.454 280.311C403.314 284.621 417.704 287.782 432.174 293.596C435.534 295.239 440.529 299.232 444.419 295.622C414.374 276.392 378.729 263.151 344.859 248.51C339.996 246.477 335.355 243.345 331.118 240.383C371.818 251.215 409.408 275.743 446.217 290.185C436.109 281.911 423.495 277.35 411.847 271.05C379.908 252.932 343.497 231.277 303.084 220.328C279.729 214.131 255.356 210.365 232.663 200.875Z" fill="white"/>
<path d="M119.835 206.535C117.706 207.073 119.04 207.869 119.054 209.541C126.378 215.937 137.422 219.127 148.01 222.841C157.381 226.046 169.096 233.326 178.748 229.03C160.159 220.542 136.766 216.71 119.835 206.535Z" fill="white"/>
<path d="M112.555 225.641C131.822 232.508 149.77 240.252 169.036 247.119C170.407 245.55 166.914 241.947 168.322 238.012C151.251 231.587 136.007 223.07 118.192 217.286C116.549 220.645 115.716 224.344 112.555 225.641Z" fill="white"/>
<path d="M102.291 232.537C100.795 239.529 109.305 243.088 114.455 245.003C122.847 248.275 133.655 250.891 143.432 254.265C152.804 257.471 164.401 264.463 171.842 258.053C146.696 251.584 126.236 240.17 102.291 232.537Z" fill="white"/>
<path d="M195.344 241.704C190.444 242.036 188.138 248.689 189.619 253.117C194.401 252.498 197.503 244.511 195.344 241.704Z" fill="#7F7F7F"/>
<path d="M75.8614 243.378C79.3167 249.346 86.8319 251.299 91.7756 255.985C95.1797 249.553 83.5166 241.581 75.8614 243.378Z" fill="#7F7F7F"/>
<path d="M213.809 248.223C208.298 251.155 200.775 254.912 201.003 261.197C206.109 258.095 214.966 255.134 213.809 248.223Z" fill="#7F7F7F"/>
<path d="M71.7956 253.099C74.7648 256.246 82.3093 261.543 87.0101 258.272C84.6009 253.218 77.8299 250.624 71.7956 253.099Z" fill="#7F7F7F"/>
<path d="M206.982 265.129C211.152 267.111 214.755 263.619 218.557 263.066C219.751 254.52 206.938 260.111 206.982 265.129Z" fill="#7F7F7F"/>
<path d="M61.3447 266.124C64.6528 268.46 76.1392 269.455 78.357 265.859C76.7583 261.144 63.0909 261.379 61.3447 266.124Z" fill="#7F7F7F"/>
<path d="M105.171 278.027C138.164 278.256 174.23 280.246 203.487 282.008C203.377 276.011 196.127 277.978 192.089 277.955C169.47 276.828 146.328 275.243 123.488 275.213C116.916 275.559 109.349 274.299 105.171 278.027Z" fill="white"/>
<path d="M91.6098 288.277C131.138 290.525 174.792 289.737 216.45 291.448C212.538 286.003 204.02 288.154 197.212 287.925C168.426 287.313 129.016 285.353 102.698 283.392C97.4451 282.862 94.0339 281.911 91.6098 288.277Z" fill="white"/>
<path d="M77.515 299.778C120.27 301.709 167.896 299.964 210.717 302.875C216.95 303.34 228.518 306.987 232.445 301.012C228.769 296.141 216.553 297.46 210.894 296.76C181.269 292.464 138.27 295.668 107.119 295.019C96.5609 294.65 84.0798 292.049 77.515 299.778Z" fill="white"/>
<path d="M186.696 129.77C175.873 125.482 166.671 121.871 156.739 120.574C152.061 119.808 159.981 121.93 160.386 122.099C168.66 125.083 177.678 127.427 186.696 129.77Z" fill="white"/>
<path d="M225.679 195.355C222.82 198.207 216.624 208.47 216.734 214.467C222.179 210.555 221.921 200.925 225.679 195.355Z" fill="white"/>
<path d="M174.294 253.366C172.305 250.153 166.477 249.859 161.968 248.687C147.63 244.833 133.683 239.477 120.782 235.034C119.382 233.258 119.228 235.336 120.848 236.013C134.037 240.339 147.814 246.101 161.879 251.745C165.408 252.982 171.163 258.007 174.294 253.366Z" fill="white"/>
</g>
</svg>
