<svg width="34" height="34" viewBox="0 0 34 34" fill="none" xmlns="http://www.w3.org/2000/svg">
<circle cx="17" cy="17" r="16.5" fill="white" fill-opacity="0.04" stroke="#D1B06B"/>
<path fill-rule="evenodd" clip-rule="evenodd" d="M9.643 11.3097C8.66669 12.286 8.66669 13.8573 8.66669 17C8.66669 20.1427 8.66669 21.7141 9.643 22.6904C10.6193 23.6667 12.1907 23.6667 15.3334 23.6667H18.6667C21.8094 23.6667 23.3807 23.6667 24.357 22.6904C25.3334 21.7141 25.3334 20.1427 25.3334 17C25.3334 13.8573 25.3334 12.286 24.357 11.3097C23.3807 10.3333 21.8094 10.3333 18.6667 10.3333H15.3334C12.1907 10.3333 10.6193 10.3333 9.643 11.3097ZM22.4802 13.2666C22.7011 13.5317 22.6653 13.9258 22.4001 14.1468L20.5697 15.6721C19.8311 16.2877 19.2324 16.7866 18.704 17.1264C18.1536 17.4804 17.6176 17.7041 17 17.7041C16.3825 17.7041 15.8464 17.4804 15.296 17.1264C14.7676 16.7866 14.1689 16.2877 13.4303 15.6722L11.5999 14.1468C11.3347 13.9258 11.2989 13.5317 11.5199 13.2666C11.7409 13.0014 12.135 12.9656 12.4001 13.1865L14.1992 14.6858C14.9767 15.3337 15.5165 15.782 15.9722 16.0751C16.4133 16.3588 16.7125 16.4541 17 16.4541C17.2876 16.4541 17.5867 16.3588 18.0279 16.0751C18.4836 15.782 19.0234 15.3337 19.8008 14.6858L21.5999 13.1865C21.8651 12.9656 22.2592 13.0014 22.4802 13.2666Z" fill="#D1B06B"/>
</svg>
