<svg width="28" height="28" viewBox="0 0 28 28" fill="none" xmlns="http://www.w3.org/2000/svg">
<path d="M2.35465 15.1685H22.8498L19.0091 19.0047C17.9068 20.1071 19.5603 21.765 20.6627 20.6627L24.1594 17.1615L26.4964 14.8245C26.7145 14.6055 26.8369 14.3091 26.8369 14C26.8369 13.6909 26.7145 13.3944 26.4964 13.1754L20.6583 7.3373C20.5482 7.22444 20.4165 7.135 20.271 7.07438C20.1255 7.01376 19.9693 6.9832 19.8117 6.98454C19.5789 6.98515 19.3516 7.05528 19.1589 7.18593C18.9662 7.31658 18.817 7.5018 18.7303 7.71784C18.6436 7.93388 18.6234 8.17089 18.6723 8.39849C18.7212 8.62608 18.8369 8.83388 19.0047 8.99525L22.8542 12.8315H2.29292C0.674649 12.9152 0.793704 15.2478 2.35465 15.1685Z" fill="#D1B06B"/>
</svg>
